<?xml version="1.0" encoding="UTF-8" standalone="no"?>
<!-- Created with Inkscape (http://www.inkscape.org/) -->

<svg
   xmlns:dc="http://purl.org/dc/elements/1.1/"
   xmlns:cc="http://creativecommons.org/ns#"
   xmlns:rdf="http://www.w3.org/1999/02/22-rdf-syntax-ns#"
   xmlns:svg="http://www.w3.org/2000/svg"
   xmlns="http://www.w3.org/2000/svg"
   version="1.1"
   width="248.33594"
   height="220.92859"
   id="svg3004"
   xml:space="preserve"><metadata
     id="metadata3010"><rdf:RDF><cc:Work
         rdf:about=""><dc:format>image/svg+xml</dc:format><dc:type
           rdf:resource="http://purl.org/dc/dcmitype/StillImage" /><dc:title></dc:title></cc:Work></rdf:RDF></metadata><defs
     id="defs3008"><clipPath
       id="clipPath3020"><path
         d="M 0,200 200,200 200,0 0,0 0,200 z"
         id="path3022" /></clipPath></defs><g
     transform="matrix(1.25,0,0,-1.25,-0.53598401,234.15359)"
     id="g3012"><path
       d="m 86.725661,149.8 c -21.179224,-4.29999 -38.632299,-18.84704 -46.95,-38.25 l 7.2,0 c 2.824634,5.78121 6.611473,11.13605 11.3,15.825 7.953,7.951 17.763,13.329 28.45,15.75 l 0,6.675 z m 54.224999,-13.325 c -1.373,-1.718 -2.917,-3.29 -4.625,-4.675 1.723,-1.377 3.367,-2.842 4.95,-4.425 4.68811,-4.68895 8.47551,-10.04393 11.3,-15.825 l 7.2,0 c -4.18812,9.77167 -10.69368,18.30105 -18.825,24.925 z M 39.000661,62.05 c 8.763653,-22.35824 29.497887,-38.692944 54.325,-41.125 2.1186,-0.207544 4.276864,-0.325 6.45,-0.325 2.086039,0 4.138999,0.108536 6.174999,0.3 24.93228,2.34456 45.77833,18.722312 54.575,41.15 l -7.075,0 c -8.42613,-18.909024 -26.55277,-32.594336 -48.025,-34.65 -1.85664,-0.177752 -3.74756,-0.275 -5.649999,-0.275 -1.96396,0 -3.920384,0.109984 -5.85,0.3 -13.46048,1.325464 -25.938225,7.214096 -35.65,16.925 -5.190901,5.190904 -9.279793,11.195944 -12.175,17.7 l -7.1,0 z"
       id="path3026"
       style="fill:#ffffff;fill-opacity:1;fill-rule:nonzero;stroke:#ffffff;stroke-width:4.04000044;stroke-miterlimit:4;stroke-opacity:1;stroke-dasharray:none" /><g
       transform="matrix(0.86344159,0,0,0.86344159,118.99618,179.32287)"
       id="g3028"
       style="fill:#ffffff"><path
         d="m 0,0 c -13.187,-0.001 -23.92,-10.733 -23.92,-23.923 l 0,-23.928 23.926,0 c 13.19,0.002 23.922,10.733 23.924,23.924 L 23.93,0 0,0 z"
         id="path3030"
         style="fill:#ffffff;fill-opacity:1;fill-rule:nonzero;stroke:none" /></g><text
       x="7.7178497"
       y="-73.743752"
       transform="scale(1,-1)"
       id="text3013"
       xml:space="preserve"
       style="font-size:38.40000153px;font-style:normal;font-variant:normal;font-weight:500;font-stretch:normal;text-align:start;line-height:125%;letter-spacing:0px;word-spacing:0px;writing-mode:lr-tb;text-anchor:start;fill:#ffffff;fill-opacity:1;stroke:none;font-family:Encode Sans Normal;-inkscape-font-specification:'Encode Sans Normal, Medium'"><tspan
         x="7.7178497"
         y="-73.743752"
         id="tspan3015"
         style="font-size:41.59999847px;letter-spacing:-0.80000001px;fill:#ffffff">tangerine</tspan></text>
</g></svg>