<?xml version="1.0" encoding="UTF-8" standalone="no"?>
<!-- Created with Inkscape (http://www.inkscape.org/) -->

<svg
   xmlns:dc="http://purl.org/dc/elements/1.1/"
   xmlns:cc="http://creativecommons.org/ns#"
   xmlns:rdf="http://www.w3.org/1999/02/22-rdf-syntax-ns#"
   xmlns:svg="http://www.w3.org/2000/svg"
   xmlns="http://www.w3.org/2000/svg"
   version="1.1"
   width="189.375"
   height="222.62679"
   id="svg4025">
  <defs
     id="defs4027" />
  <metadata
     id="metadata4030">
    <rdf:RDF>
      <cc:Work
         rdf:about="">
        <dc:format>image/svg+xml</dc:format>
        <dc:type
           rdf:resource="http://purl.org/dc/dcmitype/StillImage" />
        <dc:title></dc:title>
      </cc:Work>
    </rdf:RDF>
  </metadata>
  <g
     transform="translate(-255.3125,-421.06072)"
     id="layer1">
    <path
       d="m 396.85656,423.79894 c -12.73516,-0.10604 -25.51067,4.70072 -35.22662,14.41663 -12.42315,12.42319 -16.81222,29.83532 -13.177,45.78776 l 0,9.72172 c -5.13738,-1.12138 -10.47572,-1.7179 -15.94912,-1.7179 -41.12402,0 -74.45511,33.33107 -74.45511,74.45512 0,41.12404 33.33106,74.46487 74.45511,74.46487 6.02413,0 11.88165,-0.71885 17.49129,-2.06928 5.61074,1.35097 11.46592,2.06928 17.49129,2.06928 41.12406,0 74.46489,-33.34083 74.46489,-74.46487 0,-41.12405 -33.34083,-74.45512 -74.46489,-74.45512 -4.61151,0 -9.12027,0.42674 -13.49912,1.22986 l 0,-6.11024 c 15.10829,2.4734 31.13921,-2.11071 42.79119,-13.76268 12.95427,-12.95426 17.1857,-31.33613 12.67922,-47.82773 -4.12295,-1.12676 -8.35609,-1.70209 -12.60113,-1.73742 z"
       id="path4012"
       style="fill:#ffffff;fill-opacity:1;stroke:#ffffff;stroke-width:3.48951244;stroke-linecap:round;stroke-linejoin:round;stroke-miterlimit:4;stroke-opacity:1;stroke-dasharray:none" />
  </g>
</svg>
